<mxfile host="app.diagrams.net" modified="2023-04-25T08:49:23.714Z" agent="Mozilla/5.0 (Windows NT 10.0; Win64; x64) AppleWebKit/537.36 (KHTML, like Gecko) Chrome/112.0.0.0 Safari/537.36" etag="DnRZ_Gng0IG6oPpQrjd5" version="21.2.1" type="github">
  <diagram id="prtHgNgQTEPvFCAcTncT" name="Page-1">
    <mxGraphModel dx="2265" dy="782" grid="1" gridSize="10" guides="1" tooltips="1" connect="1" arrows="1" fold="1" page="1" pageScale="1" pageWidth="827" pageHeight="1169" math="0" shadow="0">
      <root>
        <mxCell id="0" />
        <mxCell id="1" parent="0" />
        <mxCell id="dNxyNK7c78bLwvsdeMH5-19" value="" style="swimlane;html=1;childLayout=stackLayout;resizeParent=1;resizeParentMax=0;horizontal=0;startSize=20;horizontalStack=0;" parent="1" vertex="1">
          <mxGeometry x="100" y="120" width="1410" height="420" as="geometry">
            <mxRectangle x="130" y="120" width="50" height="40" as="alternateBounds" />
          </mxGeometry>
        </mxCell>
        <mxCell id="dNxyNK7c78bLwvsdeMH5-20" value="Client" style="swimlane;html=1;startSize=20;horizontal=0;" parent="dNxyNK7c78bLwvsdeMH5-19" vertex="1">
          <mxGeometry x="20" width="1390" height="160" as="geometry">
            <mxRectangle x="20" width="830" height="30" as="alternateBounds" />
          </mxGeometry>
        </mxCell>
        <mxCell id="dNxyNK7c78bLwvsdeMH5-32" value="" style="ellipse;whiteSpace=wrap;html=1;" parent="dNxyNK7c78bLwvsdeMH5-20" vertex="1">
          <mxGeometry x="130" y="10" width="40" height="34.5" as="geometry" />
        </mxCell>
        <mxCell id="s5pZFRqYBgZjyqIlcMoZ-17" style="edgeStyle=orthogonalEdgeStyle;rounded=0;orthogonalLoop=1;jettySize=auto;html=1;exitX=0.5;exitY=1;exitDx=0;exitDy=0;entryX=0.5;entryY=0;entryDx=0;entryDy=0;" edge="1" parent="dNxyNK7c78bLwvsdeMH5-20" source="dNxyNK7c78bLwvsdeMH5-23" target="s5pZFRqYBgZjyqIlcMoZ-7">
          <mxGeometry relative="1" as="geometry" />
        </mxCell>
        <mxCell id="dNxyNK7c78bLwvsdeMH5-23" value="" style="ellipse;whiteSpace=wrap;html=1;" parent="dNxyNK7c78bLwvsdeMH5-20" vertex="1">
          <mxGeometry x="60" y="10" width="40" height="40" as="geometry" />
        </mxCell>
        <mxCell id="H2B2UGWtE6lgij_-whlS-2" style="edgeStyle=orthogonalEdgeStyle;rounded=0;orthogonalLoop=1;jettySize=auto;html=1;exitX=1;exitY=0.5;exitDx=0;exitDy=0;entryX=0;entryY=0.5;entryDx=0;entryDy=0;" parent="dNxyNK7c78bLwvsdeMH5-20" source="dNxyNK7c78bLwvsdeMH5-24" target="dNxyNK7c78bLwvsdeMH5-30" edge="1">
          <mxGeometry relative="1" as="geometry" />
        </mxCell>
        <mxCell id="dNxyNK7c78bLwvsdeMH5-24" value="" style="rounded=0;whiteSpace=wrap;html=1;fontFamily=Helvetica;fontSize=12;fontColor=#000000;align=center;" parent="dNxyNK7c78bLwvsdeMH5-20" vertex="1">
          <mxGeometry x="160" y="80" width="80" height="56.25" as="geometry" />
        </mxCell>
        <mxCell id="dNxyNK7c78bLwvsdeMH5-30" value="" style="rounded=0;whiteSpace=wrap;html=1;fontFamily=Helvetica;fontSize=12;fontColor=#000000;align=center;" parent="dNxyNK7c78bLwvsdeMH5-20" vertex="1">
          <mxGeometry x="280" y="78.75" width="80" height="60" as="geometry" />
        </mxCell>
        <mxCell id="0VKmnLm70ZOvJsMQm3Ms-3" value="&lt;font style=&quot;font-size: 10px;&quot;&gt;Start the account opening process&lt;/font&gt;" style="text;strokeColor=none;align=center;fillColor=none;html=1;verticalAlign=middle;whiteSpace=wrap;rounded=0;" parent="dNxyNK7c78bLwvsdeMH5-20" vertex="1">
          <mxGeometry x="160" y="91.25" width="80" height="30" as="geometry" />
        </mxCell>
        <mxCell id="H2B2UGWtE6lgij_-whlS-1" value="&lt;font style=&quot;font-size: 10px;&quot;&gt;Provide mandatory personal data&lt;/font&gt;" style="text;strokeColor=none;align=center;fillColor=none;html=1;verticalAlign=middle;whiteSpace=wrap;rounded=0;" parent="dNxyNK7c78bLwvsdeMH5-20" vertex="1">
          <mxGeometry x="285" y="91" width="70" height="30" as="geometry" />
        </mxCell>
        <mxCell id="H2B2UGWtE6lgij_-whlS-9" value="&lt;font style=&quot;font-size: 9px;&quot;&gt;Rejetion&lt;/font&gt;" style="text;strokeColor=none;align=center;fillColor=none;html=1;verticalAlign=middle;whiteSpace=wrap;rounded=0;fontColor=#FF0000;" parent="dNxyNK7c78bLwvsdeMH5-20" vertex="1">
          <mxGeometry x="160" y="8.25" width="40" height="5" as="geometry" />
        </mxCell>
        <mxCell id="H2B2UGWtE6lgij_-whlS-36" value="" style="rounded=0;whiteSpace=wrap;html=1;fontFamily=Helvetica;fontSize=12;fontColor=#000000;align=center;" parent="dNxyNK7c78bLwvsdeMH5-20" vertex="1">
          <mxGeometry x="560" y="73.25" width="80" height="65.5" as="geometry" />
        </mxCell>
        <mxCell id="s5pZFRqYBgZjyqIlcMoZ-55" style="edgeStyle=orthogonalEdgeStyle;rounded=0;orthogonalLoop=1;jettySize=auto;html=1;exitX=1;exitY=0.5;exitDx=0;exitDy=0;" edge="1" parent="dNxyNK7c78bLwvsdeMH5-20" source="H2B2UGWtE6lgij_-whlS-37">
          <mxGeometry relative="1" as="geometry">
            <mxPoint x="670" y="105.15384615384619" as="targetPoint" />
          </mxGeometry>
        </mxCell>
        <mxCell id="H2B2UGWtE6lgij_-whlS-37" value="&lt;font style=&quot;font-size: 10px;&quot;&gt;Identification with ID photo and selfie via Evrotrust&lt;/font&gt;" style="text;strokeColor=none;align=center;fillColor=none;html=1;verticalAlign=middle;whiteSpace=wrap;rounded=0;" parent="dNxyNK7c78bLwvsdeMH5-20" vertex="1">
          <mxGeometry x="560" y="90" width="80" height="30" as="geometry" />
        </mxCell>
        <mxCell id="s5pZFRqYBgZjyqIlcMoZ-57" style="edgeStyle=orthogonalEdgeStyle;rounded=0;orthogonalLoop=1;jettySize=auto;html=1;exitX=0.5;exitY=1;exitDx=0;exitDy=0;" edge="1" parent="dNxyNK7c78bLwvsdeMH5-20" source="H2B2UGWtE6lgij_-whlS-44">
          <mxGeometry relative="1" as="geometry">
            <mxPoint x="710.3846153846152" y="440.51278921274024" as="targetPoint" />
          </mxGeometry>
        </mxCell>
        <mxCell id="H2B2UGWtE6lgij_-whlS-44" value="" style="rounded=0;whiteSpace=wrap;html=1;fontFamily=Helvetica;fontSize=12;fontColor=#000000;align=center;" parent="dNxyNK7c78bLwvsdeMH5-20" vertex="1">
          <mxGeometry x="670" y="69.12" width="80" height="74.25" as="geometry" />
        </mxCell>
        <mxCell id="H2B2UGWtE6lgij_-whlS-45" value="&lt;font style=&quot;font-size: 10px;&quot;&gt;Sign the documents and provide other documentation if needed&lt;/font&gt;" style="text;strokeColor=none;align=center;fillColor=none;html=1;verticalAlign=middle;whiteSpace=wrap;rounded=0;" parent="dNxyNK7c78bLwvsdeMH5-20" vertex="1">
          <mxGeometry x="665" y="91.88000000000002" width="90" height="26.25" as="geometry" />
        </mxCell>
        <mxCell id="H2B2UGWtE6lgij_-whlS-59" value="" style="ellipse;whiteSpace=wrap;html=1;" parent="dNxyNK7c78bLwvsdeMH5-20" vertex="1">
          <mxGeometry x="870" y="11.620000000000001" width="40" height="40" as="geometry" />
        </mxCell>
        <mxCell id="H2B2UGWtE6lgij_-whlS-61" value="&lt;font color=&quot;#009900&quot; style=&quot;font-size: 7px;&quot;&gt;&lt;b&gt;Approval notification&lt;/b&gt;&lt;/font&gt;" style="text;strokeColor=none;align=center;fillColor=none;html=1;verticalAlign=middle;whiteSpace=wrap;rounded=0;" parent="dNxyNK7c78bLwvsdeMH5-20" vertex="1">
          <mxGeometry x="910" y="8.25" width="60" height="30" as="geometry" />
        </mxCell>
        <mxCell id="H2B2UGWtE6lgij_-whlS-65" value="" style="rounded=0;whiteSpace=wrap;html=1;fontFamily=Helvetica;fontSize=12;fontColor=#000000;align=center;" parent="dNxyNK7c78bLwvsdeMH5-20" vertex="1">
          <mxGeometry x="910" y="80.75" width="80" height="65.5" as="geometry" />
        </mxCell>
        <mxCell id="H2B2UGWtE6lgij_-whlS-66" value="Select Account Type" style="text;strokeColor=none;align=center;fillColor=none;html=1;verticalAlign=middle;whiteSpace=wrap;rounded=0;" parent="dNxyNK7c78bLwvsdeMH5-20" vertex="1">
          <mxGeometry x="909" y="98.5" width="81" height="30" as="geometry" />
        </mxCell>
        <mxCell id="H2B2UGWtE6lgij_-whlS-91" value="" style="ellipse;whiteSpace=wrap;html=1;" parent="dNxyNK7c78bLwvsdeMH5-20" vertex="1">
          <mxGeometry x="1300" y="29.12" width="40" height="40" as="geometry" />
        </mxCell>
        <mxCell id="s5pZFRqYBgZjyqIlcMoZ-7" value="" style="rounded=0;whiteSpace=wrap;html=1;fontFamily=Helvetica;fontSize=12;fontColor=#000000;align=center;" vertex="1" parent="dNxyNK7c78bLwvsdeMH5-20">
          <mxGeometry x="40" y="78.75" width="80" height="60" as="geometry" />
        </mxCell>
        <mxCell id="s5pZFRqYBgZjyqIlcMoZ-9" value="&lt;font style=&quot;font-size: 10px;&quot;&gt;Register for a new account or enter login credentials&lt;/font&gt;" style="text;strokeColor=none;align=center;fillColor=none;html=1;verticalAlign=middle;whiteSpace=wrap;rounded=0;" vertex="1" parent="dNxyNK7c78bLwvsdeMH5-20">
          <mxGeometry x="45" y="85" width="70" height="46" as="geometry" />
        </mxCell>
        <mxCell id="s5pZFRqYBgZjyqIlcMoZ-23" value="" style="shape=image;html=1;verticalAlign=top;verticalLabelPosition=bottom;labelBackgroundColor=#ffffff;imageAspect=0;aspect=fixed;image=https://cdn2.iconfinder.com/data/icons/boxicons-regular-vol-1/24/bx-comment-error-128.png" vertex="1" parent="dNxyNK7c78bLwvsdeMH5-20">
          <mxGeometry x="136" y="13.25" width="28" height="28" as="geometry" />
        </mxCell>
        <mxCell id="s5pZFRqYBgZjyqIlcMoZ-28" value="" style="ellipse;whiteSpace=wrap;html=1;" vertex="1" parent="dNxyNK7c78bLwvsdeMH5-20">
          <mxGeometry x="376" y="13.25" width="40" height="36.75" as="geometry" />
        </mxCell>
        <mxCell id="s5pZFRqYBgZjyqIlcMoZ-29" value="" style="shape=image;html=1;verticalAlign=top;verticalLabelPosition=bottom;labelBackgroundColor=#ffffff;imageAspect=0;aspect=fixed;image=https://cdn2.iconfinder.com/data/icons/boxicons-regular-vol-1/24/bx-comment-error-128.png" vertex="1" parent="dNxyNK7c78bLwvsdeMH5-20">
          <mxGeometry x="382" y="17.62" width="28" height="28" as="geometry" />
        </mxCell>
        <mxCell id="s5pZFRqYBgZjyqIlcMoZ-44" style="edgeStyle=orthogonalEdgeStyle;rounded=0;orthogonalLoop=1;jettySize=auto;html=1;exitX=0.5;exitY=0;exitDx=0;exitDy=0;entryX=0.5;entryY=1;entryDx=0;entryDy=0;dashed=1;" edge="1" parent="dNxyNK7c78bLwvsdeMH5-20" source="dNxyNK7c78bLwvsdeMH5-28">
          <mxGeometry relative="1" as="geometry">
            <mxPoint x="380" y="247.06" as="sourcePoint" />
            <mxPoint x="390" y="47.75" as="targetPoint" />
          </mxGeometry>
        </mxCell>
        <mxCell id="s5pZFRqYBgZjyqIlcMoZ-49" style="edgeStyle=orthogonalEdgeStyle;rounded=0;orthogonalLoop=1;jettySize=auto;html=1;entryX=0.5;entryY=1;entryDx=0;entryDy=0;dashed=1;" edge="1" parent="dNxyNK7c78bLwvsdeMH5-20">
          <mxGeometry relative="1" as="geometry">
            <mxPoint x="520" y="180" as="sourcePoint" />
            <mxPoint x="400" y="47.75" as="targetPoint" />
            <Array as="points">
              <mxPoint x="520" y="150" />
              <mxPoint x="400" y="150" />
            </Array>
          </mxGeometry>
        </mxCell>
        <mxCell id="s5pZFRqYBgZjyqIlcMoZ-61" value="" style="shape=image;html=1;verticalAlign=top;verticalLabelPosition=bottom;labelBackgroundColor=#ffffff;imageAspect=0;aspect=fixed;image=https://cdn4.iconfinder.com/data/icons/web-ui-color/128/Checkmark-128.png" vertex="1" parent="dNxyNK7c78bLwvsdeMH5-20">
          <mxGeometry x="875.5" y="17.120000000000005" width="29" height="29" as="geometry" />
        </mxCell>
        <mxCell id="s5pZFRqYBgZjyqIlcMoZ-67" style="edgeStyle=orthogonalEdgeStyle;rounded=0;orthogonalLoop=1;jettySize=auto;html=1;exitX=0.5;exitY=0;exitDx=0;exitDy=0;entryX=0.5;entryY=1;entryDx=0;entryDy=0;dashed=1;" edge="1" parent="dNxyNK7c78bLwvsdeMH5-20" source="dNxyNK7c78bLwvsdeMH5-34">
          <mxGeometry relative="1" as="geometry">
            <mxPoint x="460" y="232.25" as="sourcePoint" />
            <mxPoint x="470" y="40" as="targetPoint" />
          </mxGeometry>
        </mxCell>
        <mxCell id="s5pZFRqYBgZjyqIlcMoZ-68" value="&lt;font style=&quot;font-size: 9px;&quot;&gt;Rejetion&lt;/font&gt;" style="text;strokeColor=none;align=center;fillColor=none;html=1;verticalAlign=middle;whiteSpace=wrap;rounded=0;fontColor=#FF0000;" vertex="1" parent="dNxyNK7c78bLwvsdeMH5-20">
          <mxGeometry x="336" y="10" width="40" height="10" as="geometry" />
        </mxCell>
        <mxCell id="s5pZFRqYBgZjyqIlcMoZ-75" value="SUCCESS" style="dashed=0;html=1;rounded=1;strokeColor=#008364;fontSize=12;align=center;fontStyle=1;strokeWidth=2;fontColor=#008364" vertex="1" parent="dNxyNK7c78bLwvsdeMH5-20">
          <mxGeometry x="1285" y="2.500000000000007" width="70" height="20" as="geometry" />
        </mxCell>
        <mxCell id="s5pZFRqYBgZjyqIlcMoZ-76" value="" style="verticalLabelPosition=bottom;html=1;verticalAlign=top;align=center;strokeColor=none;fillColor=#00BEF2;shape=mxgraph.azure.message;pointerEvents=1;" vertex="1" parent="dNxyNK7c78bLwvsdeMH5-20">
          <mxGeometry x="1305" y="40" width="30" height="18.5" as="geometry" />
        </mxCell>
        <mxCell id="s5pZFRqYBgZjyqIlcMoZ-81" style="edgeStyle=orthogonalEdgeStyle;rounded=0;orthogonalLoop=1;jettySize=auto;html=1;exitX=0.5;exitY=0;exitDx=0;exitDy=0;entryX=0.5;entryY=1;entryDx=0;entryDy=0;dashed=1;" edge="1" parent="dNxyNK7c78bLwvsdeMH5-20" source="s5pZFRqYBgZjyqIlcMoZ-72">
          <mxGeometry relative="1" as="geometry">
            <mxPoint x="1300" y="210.12" as="sourcePoint" />
            <mxPoint x="1324" y="69.12" as="targetPoint" />
            <Array as="points">
              <mxPoint x="1324" y="188" />
            </Array>
          </mxGeometry>
        </mxCell>
        <mxCell id="s5pZFRqYBgZjyqIlcMoZ-86" value="" style="ellipse;whiteSpace=wrap;html=1;" vertex="1" parent="dNxyNK7c78bLwvsdeMH5-20">
          <mxGeometry x="800" y="14.870000000000005" width="40" height="36.75" as="geometry" />
        </mxCell>
        <mxCell id="s5pZFRqYBgZjyqIlcMoZ-85" value="" style="shape=image;html=1;verticalAlign=top;verticalLabelPosition=bottom;labelBackgroundColor=#ffffff;imageAspect=0;aspect=fixed;image=https://cdn2.iconfinder.com/data/icons/boxicons-regular-vol-1/24/bx-comment-error-128.png" vertex="1" parent="dNxyNK7c78bLwvsdeMH5-20">
          <mxGeometry x="806" y="22.5" width="28" height="28" as="geometry" />
        </mxCell>
        <mxCell id="s5pZFRqYBgZjyqIlcMoZ-87" value="&lt;font style=&quot;font-size: 9px;&quot;&gt;Rejetion&lt;/font&gt;" style="text;strokeColor=none;align=center;fillColor=none;html=1;verticalAlign=middle;whiteSpace=wrap;rounded=0;fontColor=#FF0000;" vertex="1" parent="dNxyNK7c78bLwvsdeMH5-20">
          <mxGeometry x="755" y="14.870000000000005" width="40" height="10" as="geometry" />
        </mxCell>
        <mxCell id="s5pZFRqYBgZjyqIlcMoZ-90" style="edgeStyle=orthogonalEdgeStyle;rounded=0;orthogonalLoop=1;jettySize=auto;html=1;dashed=1;entryX=1;entryY=0.5;entryDx=0;entryDy=0;" edge="1" parent="dNxyNK7c78bLwvsdeMH5-20" target="s5pZFRqYBgZjyqIlcMoZ-86">
          <mxGeometry relative="1" as="geometry">
            <mxPoint x="861" y="241.25" as="sourcePoint" />
            <mxPoint x="810" y="60" as="targetPoint" />
            <Array as="points">
              <mxPoint x="850" y="241" />
              <mxPoint x="850" y="33" />
            </Array>
          </mxGeometry>
        </mxCell>
        <mxCell id="s5pZFRqYBgZjyqIlcMoZ-94" value="" style="dashed=0;outlineConnect=0;html=1;align=center;labelPosition=center;verticalLabelPosition=bottom;verticalAlign=top;shape=mxgraph.weblogos.sms;fillColor=#48B921;strokeColor=none" vertex="1" parent="dNxyNK7c78bLwvsdeMH5-20">
          <mxGeometry x="450" y="6.3100000000000005" width="30" height="33.88" as="geometry" />
        </mxCell>
        <mxCell id="dNxyNK7c78bLwvsdeMH5-21" value="Mobile Banking App" style="swimlane;html=1;startSize=20;horizontal=0;" parent="dNxyNK7c78bLwvsdeMH5-19" vertex="1">
          <mxGeometry x="20" y="160" width="1390" height="140" as="geometry">
            <mxRectangle x="20" y="160" width="890" height="30" as="alternateBounds" />
          </mxGeometry>
        </mxCell>
        <mxCell id="s5pZFRqYBgZjyqIlcMoZ-89" style="edgeStyle=orthogonalEdgeStyle;rounded=0;orthogonalLoop=1;jettySize=auto;html=1;dashed=1;" edge="1" parent="dNxyNK7c78bLwvsdeMH5-21">
          <mxGeometry relative="1" as="geometry">
            <mxPoint x="891" y="90" as="sourcePoint" />
            <mxPoint x="891" y="-110" as="targetPoint" />
            <Array as="points">
              <mxPoint x="890" y="90" />
              <mxPoint x="890" y="-107" />
            </Array>
          </mxGeometry>
        </mxCell>
        <mxCell id="s5pZFRqYBgZjyqIlcMoZ-30" style="edgeStyle=orthogonalEdgeStyle;rounded=0;orthogonalLoop=1;jettySize=auto;html=1;exitX=0.5;exitY=1;exitDx=0;exitDy=0;entryX=0;entryY=0.5;entryDx=0;entryDy=0;" edge="1" parent="dNxyNK7c78bLwvsdeMH5-21" source="dNxyNK7c78bLwvsdeMH5-26" target="H2B2UGWtE6lgij_-whlS-6">
          <mxGeometry relative="1" as="geometry" />
        </mxCell>
        <mxCell id="dNxyNK7c78bLwvsdeMH5-26" value="" style="rounded=0;whiteSpace=wrap;html=1;fontFamily=Helvetica;fontSize=12;fontColor=#000000;align=center;" parent="dNxyNK7c78bLwvsdeMH5-21" vertex="1">
          <mxGeometry x="280" y="23.69" width="70" height="50" as="geometry" />
        </mxCell>
        <mxCell id="H2B2UGWtE6lgij_-whlS-15" value="no" style="text;strokeColor=none;align=center;fillColor=none;html=1;verticalAlign=middle;whiteSpace=wrap;rounded=0;" parent="dNxyNK7c78bLwvsdeMH5-21" vertex="1">
          <mxGeometry x="480" y="3.6899999999999977" width="60" height="30" as="geometry" />
        </mxCell>
        <mxCell id="s5pZFRqYBgZjyqIlcMoZ-42" style="edgeStyle=orthogonalEdgeStyle;rounded=0;orthogonalLoop=1;jettySize=auto;html=1;exitX=1;exitY=0.5;exitDx=0;exitDy=0;entryX=0;entryY=0.75;entryDx=0;entryDy=0;" edge="1" parent="dNxyNK7c78bLwvsdeMH5-21" source="dNxyNK7c78bLwvsdeMH5-34" target="H2B2UGWtE6lgij_-whlS-21">
          <mxGeometry relative="1" as="geometry" />
        </mxCell>
        <mxCell id="dNxyNK7c78bLwvsdeMH5-34" value="" style="rounded=0;whiteSpace=wrap;html=1;fontFamily=Helvetica;fontSize=12;fontColor=#000000;align=center;" parent="dNxyNK7c78bLwvsdeMH5-21" vertex="1">
          <mxGeometry x="410" y="21.07" width="72.5" height="52.62" as="geometry" />
        </mxCell>
        <mxCell id="H2B2UGWtE6lgij_-whlS-18" value="&lt;font style=&quot;font-size: 9px;&quot;&gt;Send SMS to verify mobile number&lt;/font&gt;" style="text;strokeColor=none;align=center;fillColor=none;html=1;verticalAlign=middle;whiteSpace=wrap;rounded=0;" parent="dNxyNK7c78bLwvsdeMH5-21" vertex="1">
          <mxGeometry x="416.25" y="31.310000000000006" width="60" height="30" as="geometry" />
        </mxCell>
        <mxCell id="dNxyNK7c78bLwvsdeMH5-36" value="" style="rhombus;whiteSpace=wrap;html=1;fontFamily=Helvetica;fontSize=12;fontColor=#000000;align=center;" parent="dNxyNK7c78bLwvsdeMH5-21" vertex="1">
          <mxGeometry x="500" y="23.150000000000002" width="40" height="41.31" as="geometry" />
        </mxCell>
        <mxCell id="H2B2UGWtE6lgij_-whlS-23" value="no" style="text;strokeColor=none;align=center;fillColor=none;html=1;verticalAlign=middle;whiteSpace=wrap;rounded=0;" parent="dNxyNK7c78bLwvsdeMH5-21" vertex="1">
          <mxGeometry x="120" y="60" width="60" height="30" as="geometry" />
        </mxCell>
        <mxCell id="H2B2UGWtE6lgij_-whlS-29" value="&lt;font style=&quot;font-size: 9px;&quot;&gt;yes&lt;/font&gt;" style="text;strokeColor=none;align=center;fillColor=none;html=1;verticalAlign=middle;whiteSpace=wrap;rounded=0;" parent="dNxyNK7c78bLwvsdeMH5-21" vertex="1">
          <mxGeometry x="140" y="90" width="60" height="30" as="geometry" />
        </mxCell>
        <mxCell id="H2B2UGWtE6lgij_-whlS-43" value="no" style="text;strokeColor=none;align=center;fillColor=none;html=1;verticalAlign=middle;whiteSpace=wrap;rounded=0;" parent="dNxyNK7c78bLwvsdeMH5-21" vertex="1">
          <mxGeometry x="340" y="63.69" width="60" height="30" as="geometry" />
        </mxCell>
        <mxCell id="H2B2UGWtE6lgij_-whlS-55" value="" style="rounded=0;whiteSpace=wrap;html=1;fontFamily=Helvetica;fontSize=12;fontColor=#000000;align=center;" parent="dNxyNK7c78bLwvsdeMH5-21" vertex="1">
          <mxGeometry x="900" y="40" width="80" height="50" as="geometry" />
        </mxCell>
        <mxCell id="H2B2UGWtE6lgij_-whlS-58" value="Store documents for account" style="text;strokeColor=none;align=center;fillColor=none;html=1;verticalAlign=middle;whiteSpace=wrap;rounded=0;" parent="dNxyNK7c78bLwvsdeMH5-21" vertex="1">
          <mxGeometry x="901.25" y="48.81" width="77.5" height="30" as="geometry" />
        </mxCell>
        <mxCell id="s5pZFRqYBgZjyqIlcMoZ-93" style="edgeStyle=orthogonalEdgeStyle;rounded=0;orthogonalLoop=1;jettySize=auto;html=1;exitX=1;exitY=0.5;exitDx=0;exitDy=0;entryX=0;entryY=0.5;entryDx=0;entryDy=0;" edge="1" parent="dNxyNK7c78bLwvsdeMH5-21" source="H2B2UGWtE6lgij_-whlS-67" target="s5pZFRqYBgZjyqIlcMoZ-69">
          <mxGeometry relative="1" as="geometry">
            <mxPoint x="1140" y="65.13043478260875" as="targetPoint" />
          </mxGeometry>
        </mxCell>
        <mxCell id="H2B2UGWtE6lgij_-whlS-67" value="" style="rounded=0;whiteSpace=wrap;html=1;fontFamily=Helvetica;fontSize=12;fontColor=#000000;align=center;" parent="dNxyNK7c78bLwvsdeMH5-21" vertex="1">
          <mxGeometry x="1015" y="38.809999999999995" width="100" height="52.38" as="geometry" />
        </mxCell>
        <mxCell id="H2B2UGWtE6lgij_-whlS-68" value="Save new account into the bank DB" style="text;strokeColor=none;align=center;fillColor=none;html=1;verticalAlign=middle;whiteSpace=wrap;rounded=0;" parent="dNxyNK7c78bLwvsdeMH5-21" vertex="1">
          <mxGeometry x="1030" y="50" width="70" height="30" as="geometry" />
        </mxCell>
        <mxCell id="s5pZFRqYBgZjyqIlcMoZ-20" style="edgeStyle=orthogonalEdgeStyle;rounded=0;orthogonalLoop=1;jettySize=auto;html=1;exitX=0.5;exitY=1;exitDx=0;exitDy=0;entryX=0;entryY=0.5;entryDx=0;entryDy=0;" edge="1" parent="dNxyNK7c78bLwvsdeMH5-21" source="s5pZFRqYBgZjyqIlcMoZ-11" target="s5pZFRqYBgZjyqIlcMoZ-19">
          <mxGeometry relative="1" as="geometry" />
        </mxCell>
        <mxCell id="s5pZFRqYBgZjyqIlcMoZ-11" value="" style="rounded=0;whiteSpace=wrap;html=1;fontFamily=Helvetica;fontSize=12;fontColor=#000000;align=center;" vertex="1" parent="dNxyNK7c78bLwvsdeMH5-21">
          <mxGeometry x="45" y="14.999999999999993" width="75" height="57.62" as="geometry" />
        </mxCell>
        <mxCell id="s5pZFRqYBgZjyqIlcMoZ-12" value="&lt;font style=&quot;font-size: 10px;&quot;&gt;Validate client&#39;s credentials and identity&lt;/font&gt;" style="text;strokeColor=none;align=center;fillColor=none;html=1;verticalAlign=middle;whiteSpace=wrap;rounded=0;" vertex="1" parent="dNxyNK7c78bLwvsdeMH5-21">
          <mxGeometry x="42.5" y="28.81" width="80" height="30" as="geometry" />
        </mxCell>
        <mxCell id="s5pZFRqYBgZjyqIlcMoZ-18" value="" style="rhombus;whiteSpace=wrap;html=1;fontFamily=Helvetica;fontSize=12;fontColor=#000000;align=center;" vertex="1" parent="dNxyNK7c78bLwvsdeMH5-21">
          <mxGeometry x="120" y="80" width="40" height="40" as="geometry" />
        </mxCell>
        <mxCell id="s5pZFRqYBgZjyqIlcMoZ-19" value="&lt;font style=&quot;font-size: 7px;&quot;&gt;OK?&lt;/font&gt;" style="text;strokeColor=none;align=center;fillColor=none;html=1;verticalAlign=middle;whiteSpace=wrap;rounded=0;" vertex="1" parent="dNxyNK7c78bLwvsdeMH5-21">
          <mxGeometry x="117.5" y="85" width="45" height="30" as="geometry" />
        </mxCell>
        <mxCell id="H2B2UGWtE6lgij_-whlS-5" value="&lt;font style=&quot;font-size: 10px;&quot;&gt;Validate client&#39;s age&lt;/font&gt;" style="text;strokeColor=none;align=center;fillColor=none;html=1;verticalAlign=middle;whiteSpace=wrap;rounded=0;" parent="dNxyNK7c78bLwvsdeMH5-21" vertex="1">
          <mxGeometry x="280" y="33.690000000000005" width="70" height="30" as="geometry" />
        </mxCell>
        <mxCell id="dNxyNK7c78bLwvsdeMH5-28" value="" style="rhombus;whiteSpace=wrap;html=1;fontFamily=Helvetica;fontSize=12;fontColor=#000000;align=center;" parent="dNxyNK7c78bLwvsdeMH5-21" vertex="1">
          <mxGeometry x="360" y="80" width="40" height="40" as="geometry" />
        </mxCell>
        <mxCell id="s5pZFRqYBgZjyqIlcMoZ-27" value="" style="rhombus;whiteSpace=wrap;html=1;fontFamily=Helvetica;fontSize=12;fontColor=#000000;align=center;" vertex="1" parent="dNxyNK7c78bLwvsdeMH5-21">
          <mxGeometry x="840" y="80" width="40" height="40" as="geometry" />
        </mxCell>
        <mxCell id="s5pZFRqYBgZjyqIlcMoZ-34" style="edgeStyle=orthogonalEdgeStyle;rounded=0;orthogonalLoop=1;jettySize=auto;html=1;exitX=1;exitY=0.5;exitDx=0;exitDy=0;entryX=0.577;entryY=0.985;entryDx=0;entryDy=0;entryPerimeter=0;" edge="1" parent="dNxyNK7c78bLwvsdeMH5-21" source="H2B2UGWtE6lgij_-whlS-6" target="dNxyNK7c78bLwvsdeMH5-34">
          <mxGeometry relative="1" as="geometry" />
        </mxCell>
        <mxCell id="H2B2UGWtE6lgij_-whlS-6" value="&lt;font style=&quot;font-size: 8px;&quot;&gt;age &amp;gt;= 18&lt;/font&gt;" style="text;strokeColor=none;align=center;fillColor=none;html=1;verticalAlign=middle;whiteSpace=wrap;rounded=0;" parent="dNxyNK7c78bLwvsdeMH5-21" vertex="1">
          <mxGeometry x="357.5" y="85" width="45" height="30" as="geometry" />
        </mxCell>
        <mxCell id="H2B2UGWtE6lgij_-whlS-21" value="&lt;font style=&quot;font-size: 7px;&quot;&gt;SMS received&lt;/font&gt;" style="text;strokeColor=none;align=center;fillColor=none;html=1;verticalAlign=middle;whiteSpace=wrap;rounded=0;movable=1;resizable=1;rotatable=1;deletable=1;editable=1;locked=0;connectable=1;" parent="dNxyNK7c78bLwvsdeMH5-21" vertex="1">
          <mxGeometry x="497.5" y="24.999999999999996" width="45" height="30" as="geometry" />
        </mxCell>
        <mxCell id="s5pZFRqYBgZjyqIlcMoZ-43" style="edgeStyle=orthogonalEdgeStyle;rounded=0;orthogonalLoop=1;jettySize=auto;html=1;exitX=0.5;exitY=0;exitDx=0;exitDy=0;dashed=1;" edge="1" parent="dNxyNK7c78bLwvsdeMH5-21" source="s5pZFRqYBgZjyqIlcMoZ-18">
          <mxGeometry relative="1" as="geometry">
            <mxPoint x="201" y="53.69" as="sourcePoint" />
            <mxPoint x="150" y="-110" as="targetPoint" />
          </mxGeometry>
        </mxCell>
        <mxCell id="s5pZFRqYBgZjyqIlcMoZ-60" style="edgeStyle=orthogonalEdgeStyle;rounded=0;orthogonalLoop=1;jettySize=auto;html=1;exitX=0.75;exitY=1;exitDx=0;exitDy=0;entryX=0.5;entryY=1;entryDx=0;entryDy=0;" edge="1" parent="dNxyNK7c78bLwvsdeMH5-21" source="H2B2UGWtE6lgij_-whlS-26" target="s5pZFRqYBgZjyqIlcMoZ-27">
          <mxGeometry relative="1" as="geometry" />
        </mxCell>
        <mxCell id="H2B2UGWtE6lgij_-whlS-26" value="" style="rounded=0;whiteSpace=wrap;html=1;fontFamily=Helvetica;fontSize=12;fontColor=#000000;align=center;" parent="dNxyNK7c78bLwvsdeMH5-21" vertex="1">
          <mxGeometry x="750" y="42.620000000000005" width="70" height="49.5" as="geometry" />
        </mxCell>
        <mxCell id="H2B2UGWtE6lgij_-whlS-27" value="Check backoffice feedback" style="text;strokeColor=none;align=center;fillColor=none;html=1;verticalAlign=middle;whiteSpace=wrap;rounded=0;" parent="dNxyNK7c78bLwvsdeMH5-21" vertex="1">
          <mxGeometry x="754.5" y="51" width="61" height="29" as="geometry" />
        </mxCell>
        <mxCell id="s5pZFRqYBgZjyqIlcMoZ-62" style="edgeStyle=orthogonalEdgeStyle;rounded=0;orthogonalLoop=1;jettySize=auto;html=1;exitX=1;exitY=0.5;exitDx=0;exitDy=0;entryX=0.367;entryY=1.042;entryDx=0;entryDy=0;entryPerimeter=0;" edge="1" parent="dNxyNK7c78bLwvsdeMH5-21" source="H2B2UGWtE6lgij_-whlS-40" target="H2B2UGWtE6lgij_-whlS-55">
          <mxGeometry relative="1" as="geometry" />
        </mxCell>
        <mxCell id="H2B2UGWtE6lgij_-whlS-40" value="&lt;font style=&quot;font-size: 9px;&quot;&gt;Approved?&lt;/font&gt;" style="text;strokeColor=none;align=center;fillColor=none;html=1;verticalAlign=middle;whiteSpace=wrap;rounded=0;" parent="dNxyNK7c78bLwvsdeMH5-21" vertex="1">
          <mxGeometry x="832.5" y="82.5" width="60" height="35" as="geometry" />
        </mxCell>
        <mxCell id="s5pZFRqYBgZjyqIlcMoZ-69" value="" style="rounded=0;whiteSpace=wrap;html=1;fontFamily=Helvetica;fontSize=12;fontColor=#000000;align=center;" vertex="1" parent="dNxyNK7c78bLwvsdeMH5-21">
          <mxGeometry x="1150" y="33.68999999999995" width="95" height="67.37" as="geometry" />
        </mxCell>
        <mxCell id="s5pZFRqYBgZjyqIlcMoZ-70" value="Start the card creation process" style="text;strokeColor=none;align=center;fillColor=none;html=1;verticalAlign=middle;whiteSpace=wrap;rounded=0;" vertex="1" parent="dNxyNK7c78bLwvsdeMH5-21">
          <mxGeometry x="1157.5" y="55" width="80" height="30" as="geometry" />
        </mxCell>
        <mxCell id="s5pZFRqYBgZjyqIlcMoZ-72" value="" style="rounded=0;whiteSpace=wrap;html=1;fontFamily=Helvetica;fontSize=12;fontColor=#000000;align=center;" vertex="1" parent="dNxyNK7c78bLwvsdeMH5-21">
          <mxGeometry x="1270" y="28" width="100" height="75" as="geometry" />
        </mxCell>
        <mxCell id="s5pZFRqYBgZjyqIlcMoZ-73" value="Send confirmation email with new generated account number" style="text;strokeColor=none;align=center;fillColor=none;html=1;verticalAlign=middle;whiteSpace=wrap;rounded=0;" vertex="1" parent="dNxyNK7c78bLwvsdeMH5-21">
          <mxGeometry x="1270" y="48.81" width="100" height="30" as="geometry" />
        </mxCell>
        <mxCell id="H2B2UGWtE6lgij_-whlS-24" value="&lt;font style=&quot;font-size: 9px;&quot;&gt;yes&lt;/font&gt;" style="text;strokeColor=none;align=center;fillColor=none;html=1;verticalAlign=middle;whiteSpace=wrap;rounded=0;" parent="dNxyNK7c78bLwvsdeMH5-21" vertex="1">
          <mxGeometry x="380" y="92.12" width="60" height="30" as="geometry" />
        </mxCell>
        <mxCell id="H2B2UGWtE6lgij_-whlS-76" value="&lt;font style=&quot;font-size: 9px;&quot;&gt;yes&lt;/font&gt;" style="text;strokeColor=none;align=center;fillColor=none;html=1;verticalAlign=middle;whiteSpace=wrap;rounded=0;" parent="dNxyNK7c78bLwvsdeMH5-21" vertex="1">
          <mxGeometry x="500" y="51" width="60" height="30" as="geometry" />
        </mxCell>
        <mxCell id="s5pZFRqYBgZjyqIlcMoZ-83" value="&lt;font style=&quot;font-size: 9px;&quot;&gt;yes&lt;/font&gt;" style="text;strokeColor=none;align=center;fillColor=none;html=1;verticalAlign=middle;whiteSpace=wrap;rounded=0;" vertex="1" parent="dNxyNK7c78bLwvsdeMH5-21">
          <mxGeometry x="870" y="93.69" width="60" height="30" as="geometry" />
        </mxCell>
        <mxCell id="s5pZFRqYBgZjyqIlcMoZ-84" value="no" style="text;strokeColor=none;align=center;fillColor=none;html=1;verticalAlign=middle;whiteSpace=wrap;rounded=0;" vertex="1" parent="dNxyNK7c78bLwvsdeMH5-21">
          <mxGeometry x="830" y="50.99999999999997" width="60" height="30" as="geometry" />
        </mxCell>
        <mxCell id="dNxyNK7c78bLwvsdeMH5-22" value="Third-party services" style="swimlane;html=1;startSize=20;horizontal=0;" parent="dNxyNK7c78bLwvsdeMH5-19" vertex="1">
          <mxGeometry x="20" y="300" width="1390" height="120" as="geometry" />
        </mxCell>
        <mxCell id="H2B2UGWtE6lgij_-whlS-32" value="" style="rounded=0;whiteSpace=wrap;html=1;fontFamily=Helvetica;fontSize=12;fontColor=#000000;align=center;" parent="dNxyNK7c78bLwvsdeMH5-22" vertex="1">
          <mxGeometry x="547.5" y="41.31" width="95" height="67.37" as="geometry" />
        </mxCell>
        <mxCell id="H2B2UGWtE6lgij_-whlS-34" value="Send documents for signing with &lt;b&gt;Evrotrust&amp;nbsp;&lt;/b&gt;" style="text;strokeColor=none;align=center;fillColor=none;html=1;verticalAlign=middle;whiteSpace=wrap;rounded=0;" parent="dNxyNK7c78bLwvsdeMH5-22" vertex="1">
          <mxGeometry x="555" y="57.36999999999999" width="80" height="30" as="geometry" />
        </mxCell>
        <mxCell id="H2B2UGWtE6lgij_-whlS-81" value="" style="shape=cylinder3;whiteSpace=wrap;html=1;boundedLbl=1;backgroundOutline=1;size=15;" parent="dNxyNK7c78bLwvsdeMH5-22" vertex="1">
          <mxGeometry x="940" y="37.37" width="40" height="50" as="geometry" />
        </mxCell>
        <mxCell id="H2B2UGWtE6lgij_-whlS-83" value="" style="shape=cylinder3;whiteSpace=wrap;html=1;boundedLbl=1;backgroundOutline=1;size=15;" parent="dNxyNK7c78bLwvsdeMH5-22" vertex="1">
          <mxGeometry x="1045" y="34.99999999999999" width="40" height="50" as="geometry" />
        </mxCell>
        <mxCell id="H2B2UGWtE6lgij_-whlS-85" value="&lt;font style=&quot;font-size: 9px;&quot;&gt;&lt;b&gt;Documents DB&lt;/b&gt;&lt;/font&gt;" style="text;strokeColor=none;align=center;fillColor=none;html=1;verticalAlign=middle;whiteSpace=wrap;rounded=0;" parent="dNxyNK7c78bLwvsdeMH5-22" vertex="1">
          <mxGeometry x="925" y="87.37" width="70" height="30" as="geometry" />
        </mxCell>
        <mxCell id="H2B2UGWtE6lgij_-whlS-86" value="&lt;font style=&quot;font-size: 9px;&quot;&gt;&lt;b&gt;Accounts DB&lt;/b&gt;&lt;/font&gt;" style="text;strokeColor=none;align=center;fillColor=none;html=1;verticalAlign=middle;whiteSpace=wrap;rounded=0;" parent="dNxyNK7c78bLwvsdeMH5-22" vertex="1">
          <mxGeometry x="1030" y="87.37" width="70" height="30" as="geometry" />
        </mxCell>
        <mxCell id="H2B2UGWtE6lgij_-whlS-82" style="edgeStyle=orthogonalEdgeStyle;rounded=0;orthogonalLoop=1;jettySize=auto;html=1;exitX=0.75;exitY=1;exitDx=0;exitDy=0;entryX=0.5;entryY=0;entryDx=0;entryDy=0;entryPerimeter=0;" parent="dNxyNK7c78bLwvsdeMH5-19" source="H2B2UGWtE6lgij_-whlS-55" target="H2B2UGWtE6lgij_-whlS-81" edge="1">
          <mxGeometry relative="1" as="geometry" />
        </mxCell>
        <mxCell id="H2B2UGWtE6lgij_-whlS-84" style="edgeStyle=orthogonalEdgeStyle;rounded=0;orthogonalLoop=1;jettySize=auto;html=1;exitX=0.5;exitY=1;exitDx=0;exitDy=0;entryX=0.5;entryY=0;entryDx=0;entryDy=0;entryPerimeter=0;" parent="dNxyNK7c78bLwvsdeMH5-19" source="H2B2UGWtE6lgij_-whlS-67" target="H2B2UGWtE6lgij_-whlS-83" edge="1">
          <mxGeometry relative="1" as="geometry" />
        </mxCell>
        <mxCell id="s5pZFRqYBgZjyqIlcMoZ-22" style="edgeStyle=orthogonalEdgeStyle;rounded=0;orthogonalLoop=1;jettySize=auto;html=1;exitX=1;exitY=0.5;exitDx=0;exitDy=0;entryX=0.375;entryY=0.889;entryDx=0;entryDy=0;entryPerimeter=0;" edge="1" parent="dNxyNK7c78bLwvsdeMH5-19" source="s5pZFRqYBgZjyqIlcMoZ-19" target="dNxyNK7c78bLwvsdeMH5-24">
          <mxGeometry relative="1" as="geometry" />
        </mxCell>
        <mxCell id="s5pZFRqYBgZjyqIlcMoZ-24" style="edgeStyle=orthogonalEdgeStyle;rounded=0;orthogonalLoop=1;jettySize=auto;html=1;exitX=0.5;exitY=1;exitDx=0;exitDy=0;entryX=0.5;entryY=0;entryDx=0;entryDy=0;" edge="1" parent="dNxyNK7c78bLwvsdeMH5-19" source="s5pZFRqYBgZjyqIlcMoZ-7" target="s5pZFRqYBgZjyqIlcMoZ-11">
          <mxGeometry relative="1" as="geometry" />
        </mxCell>
        <mxCell id="s5pZFRqYBgZjyqIlcMoZ-36" style="edgeStyle=orthogonalEdgeStyle;rounded=0;orthogonalLoop=1;jettySize=auto;html=1;exitX=0.5;exitY=1;exitDx=0;exitDy=0;entryX=0.574;entryY=-0.001;entryDx=0;entryDy=0;entryPerimeter=0;" edge="1" parent="dNxyNK7c78bLwvsdeMH5-19" source="dNxyNK7c78bLwvsdeMH5-30" target="dNxyNK7c78bLwvsdeMH5-26">
          <mxGeometry relative="1" as="geometry" />
        </mxCell>
        <mxCell id="s5pZFRqYBgZjyqIlcMoZ-53" style="edgeStyle=orthogonalEdgeStyle;rounded=0;orthogonalLoop=1;jettySize=auto;html=1;exitX=0.5;exitY=0;exitDx=0;exitDy=0;entryX=0.425;entryY=0.986;entryDx=0;entryDy=0;entryPerimeter=0;" edge="1" parent="dNxyNK7c78bLwvsdeMH5-19" source="H2B2UGWtE6lgij_-whlS-32" target="H2B2UGWtE6lgij_-whlS-36">
          <mxGeometry relative="1" as="geometry" />
        </mxCell>
        <mxCell id="s5pZFRqYBgZjyqIlcMoZ-63" style="edgeStyle=orthogonalEdgeStyle;rounded=0;orthogonalLoop=1;jettySize=auto;html=1;exitX=0.5;exitY=0;exitDx=0;exitDy=0;entryX=0.378;entryY=1.005;entryDx=0;entryDy=0;entryPerimeter=0;" edge="1" parent="dNxyNK7c78bLwvsdeMH5-19" source="H2B2UGWtE6lgij_-whlS-55" target="H2B2UGWtE6lgij_-whlS-65">
          <mxGeometry relative="1" as="geometry" />
        </mxCell>
        <mxCell id="s5pZFRqYBgZjyqIlcMoZ-91" style="edgeStyle=orthogonalEdgeStyle;rounded=0;orthogonalLoop=1;jettySize=auto;html=1;exitX=1;exitY=0.5;exitDx=0;exitDy=0;entryX=0.5;entryY=0;entryDx=0;entryDy=0;" edge="1" parent="dNxyNK7c78bLwvsdeMH5-19" source="H2B2UGWtE6lgij_-whlS-65" target="H2B2UGWtE6lgij_-whlS-67">
          <mxGeometry relative="1" as="geometry" />
        </mxCell>
        <mxCell id="H2B2UGWtE6lgij_-whlS-49" value="Bank representatives" style="swimlane;html=1;startSize=20;horizontal=0;" parent="1" vertex="1">
          <mxGeometry x="120" y="540" width="1390" height="120" as="geometry">
            <mxRectangle x="160" y="540" width="40" height="90" as="alternateBounds" />
          </mxGeometry>
        </mxCell>
        <mxCell id="H2B2UGWtE6lgij_-whlS-53" value="" style="rounded=0;whiteSpace=wrap;html=1;fontFamily=Helvetica;fontSize=12;fontColor=#000000;align=center;" parent="H2B2UGWtE6lgij_-whlS-49" vertex="1">
          <mxGeometry x="660" y="21.30999999999994" width="95" height="67.37" as="geometry" />
        </mxCell>
        <mxCell id="H2B2UGWtE6lgij_-whlS-54" value="Review documents&amp;nbsp;" style="text;strokeColor=none;align=center;fillColor=none;html=1;verticalAlign=middle;whiteSpace=wrap;rounded=0;" parent="H2B2UGWtE6lgij_-whlS-49" vertex="1">
          <mxGeometry x="660" y="40" width="100" height="30" as="geometry" />
        </mxCell>
        <mxCell id="H2B2UGWtE6lgij_-whlS-77" value="" style="rounded=0;whiteSpace=wrap;html=1;fontFamily=Helvetica;fontSize=12;fontColor=#000000;align=center;" parent="H2B2UGWtE6lgij_-whlS-49" vertex="1">
          <mxGeometry x="1140" y="26.309999999999945" width="95" height="67.37" as="geometry" />
        </mxCell>
        <mxCell id="H2B2UGWtE6lgij_-whlS-78" value="Create a card for the new bank account" style="text;strokeColor=none;align=center;fillColor=none;html=1;verticalAlign=middle;whiteSpace=wrap;rounded=0;" parent="H2B2UGWtE6lgij_-whlS-49" vertex="1">
          <mxGeometry x="1147.5" y="44.99999999999999" width="80" height="30" as="geometry" />
        </mxCell>
        <mxCell id="s5pZFRqYBgZjyqIlcMoZ-45" value="" style="rounded=0;whiteSpace=wrap;html=1;fontFamily=Helvetica;fontSize=12;fontColor=#000000;align=center;" vertex="1" parent="H2B2UGWtE6lgij_-whlS-49">
          <mxGeometry x="472.5" y="26.31" width="95" height="73.69" as="geometry" />
        </mxCell>
        <mxCell id="s5pZFRqYBgZjyqIlcMoZ-52" style="edgeStyle=orthogonalEdgeStyle;rounded=0;orthogonalLoop=1;jettySize=auto;html=1;exitX=1;exitY=0.5;exitDx=0;exitDy=0;" edge="1" parent="H2B2UGWtE6lgij_-whlS-49" source="s5pZFRqYBgZjyqIlcMoZ-46">
          <mxGeometry relative="1" as="geometry">
            <mxPoint x="600" y="-10.000000000000114" as="targetPoint" />
          </mxGeometry>
        </mxCell>
        <mxCell id="s5pZFRqYBgZjyqIlcMoZ-46" value="Prepare documents with terms and conditions" style="text;strokeColor=none;align=center;fillColor=none;html=1;verticalAlign=middle;whiteSpace=wrap;rounded=0;" vertex="1" parent="H2B2UGWtE6lgij_-whlS-49">
          <mxGeometry x="470" y="45" width="100" height="30" as="geometry" />
        </mxCell>
        <mxCell id="H2B2UGWtE6lgij_-whlS-64" value="" style="rounded=0;whiteSpace=wrap;html=1;" parent="1" vertex="1">
          <mxGeometry x="100" y="540" width="20" height="120" as="geometry" />
        </mxCell>
        <mxCell id="s5pZFRqYBgZjyqIlcMoZ-48" style="edgeStyle=orthogonalEdgeStyle;rounded=0;orthogonalLoop=1;jettySize=auto;html=1;exitX=0.5;exitY=1;exitDx=0;exitDy=0;entryX=0.5;entryY=0;entryDx=0;entryDy=0;" edge="1" parent="1" source="dNxyNK7c78bLwvsdeMH5-36" target="s5pZFRqYBgZjyqIlcMoZ-45">
          <mxGeometry relative="1" as="geometry" />
        </mxCell>
        <mxCell id="s5pZFRqYBgZjyqIlcMoZ-58" style="edgeStyle=orthogonalEdgeStyle;rounded=0;orthogonalLoop=1;jettySize=auto;html=1;exitX=1;exitY=0.5;exitDx=0;exitDy=0;entryX=0.5;entryY=1;entryDx=0;entryDy=0;" edge="1" parent="1" source="H2B2UGWtE6lgij_-whlS-53" target="H2B2UGWtE6lgij_-whlS-26">
          <mxGeometry relative="1" as="geometry" />
        </mxCell>
        <mxCell id="s5pZFRqYBgZjyqIlcMoZ-79" style="edgeStyle=orthogonalEdgeStyle;rounded=0;orthogonalLoop=1;jettySize=auto;html=1;exitX=0.5;exitY=1;exitDx=0;exitDy=0;entryX=0.5;entryY=0;entryDx=0;entryDy=0;" edge="1" parent="1" source="s5pZFRqYBgZjyqIlcMoZ-69" target="H2B2UGWtE6lgij_-whlS-77">
          <mxGeometry relative="1" as="geometry" />
        </mxCell>
        <mxCell id="s5pZFRqYBgZjyqIlcMoZ-80" style="edgeStyle=orthogonalEdgeStyle;rounded=0;orthogonalLoop=1;jettySize=auto;html=1;exitX=1;exitY=0.5;exitDx=0;exitDy=0;entryX=0.5;entryY=1;entryDx=0;entryDy=0;" edge="1" parent="1" source="H2B2UGWtE6lgij_-whlS-77" target="s5pZFRqYBgZjyqIlcMoZ-72">
          <mxGeometry relative="1" as="geometry" />
        </mxCell>
      </root>
    </mxGraphModel>
  </diagram>
</mxfile>
